<svg width="35" height="34" viewBox="0 0 35 34" fill="none" xmlns="http://www.w3.org/2000/svg">
<path d="M28.7674 29.3837V26.5994C28.7674 25.1225 28.1807 23.7062 27.1364 22.6619C26.0921 21.6175 24.6757 21.0309 23.1988 21.0309H21.8067C21.4375 21.0309 21.0834 20.8842 20.8223 20.6231C20.5612 20.362 20.4145 20.0079 20.4145 19.6387V12.678C20.4145 11.9396 20.1212 11.2314 19.599 10.7092C19.0769 10.1871 18.3687 9.89375 17.6303 9.89375C16.8918 9.89375 16.1836 10.1871 15.6615 10.7092C15.1393 11.2314 14.846 11.9396 14.846 12.678V25.2073L11.5048 20.7524C11.2455 20.4066 10.9092 20.126 10.5226 19.9327C10.136 19.7394 9.70966 19.6387 9.27742 19.6387H8.67323C7.46903 19.6387 6.49314 20.6146 6.49314 21.8188C6.49314 22.2142 6.60034 22.6026 6.80359 22.9409L10.6696 29.3837M17.6303 5.71733V4.3252V5.71733ZM25.9831 14.0702H27.3752H25.9831ZM7.88528 14.0702H9.27742H7.88528ZM11.1471 7.58698L10.1628 6.60273L11.1471 7.58698ZM24.1134 7.58698L25.0977 6.60273L24.1134 7.58698Z" fill="#4CAF4F"/>
<path d="M28.7674 29.3837V26.5994C28.7674 25.1225 28.1807 23.7062 27.1364 22.6619C26.0921 21.6175 24.6757 21.0309 23.1988 21.0309H21.8067C21.4375 21.0309 21.0834 20.8842 20.8223 20.6231C20.5612 20.362 20.4145 20.0079 20.4145 19.6387V12.678C20.4145 11.9396 20.1212 11.2314 19.599 10.7092C19.0769 10.1871 18.3687 9.89375 17.6303 9.89375V9.89375C16.8918 9.89375 16.1836 10.1871 15.6615 10.7092C15.1393 11.2314 14.846 11.9396 14.846 12.678V25.2073L11.5048 20.7524C11.2455 20.4066 10.9092 20.126 10.5226 19.9327C10.136 19.7394 9.70966 19.6387 9.27742 19.6387H8.67323C7.46903 19.6387 6.49314 20.6146 6.49314 21.8188C6.49314 22.2142 6.60034 22.6026 6.80359 22.9409L10.6696 29.3837M17.6303 5.71733V4.3252M25.9831 14.0702H27.3752M7.88528 14.0702H9.27742M11.1471 7.58698L10.1628 6.60273M24.1134 7.58698L25.0977 6.60273" stroke="#4CAF4F" stroke-width="1.39214" stroke-linecap="round" stroke-linejoin="round"/>
</svg>
