<svg width="24" height="22" viewBox="0 0 24 22" fill="none" xmlns="http://www.w3.org/2000/svg">
<mask id="path-1-inside-1_211_2339" fill="white">
<path d="M15.0112 10.7644C14.8436 10.7644 14.688 10.7184 14.5497 10.6442V10.6462C14.5497 10.9099 14.4472 11.1575 14.2613 11.343C14.0753 11.529 13.8279 11.6315 13.5645 11.6315C13.3944 11.6315 13.2368 11.5843 13.0971 11.5082C13.083 11.7494 12.9865 11.9749 12.8145 12.1471C12.6285 12.3331 12.3811 12.4355 12.1175 12.4355C11.5939 12.4355 11.1686 12.0239 11.138 11.508C10.976 11.5956 10.7928 11.6415 10.6039 11.6293C10.0887 11.5956 9.68534 11.1505 9.68534 10.6159V6.18423L9.18071 7.05847C8.98851 7.39284 8.62873 7.60045 8.24136 7.60045C8.05261 7.60045 7.86615 7.55093 7.70101 7.4563C7.49537 7.33708 7.34827 7.1457 7.28709 6.91675C7.2256 6.68765 7.25741 6.44806 7.3763 6.24273C7.37647 6.24273 9.02738 3.38383 9.12809 3.20822C9.14006 3.18182 9.17418 3.10524 9.2032 3.03997C9.23092 2.97765 9.2547 2.91369 9.27749 2.84941C9.77535 1.44385 11.0081 0.570744 12.4949 0.570744C14.4255 0.570744 15.9963 2.27396 15.9963 4.36752L15.9964 9.77901C15.9964 10.0424 15.8941 10.2898 15.7083 10.476C15.5223 10.662 15.2749 10.7645 15.0112 10.7645L15.0112 10.7644ZM12.4949 1.09429C11.2174 1.09429 10.1991 1.81588 9.77096 3.0245C9.74358 3.10124 9.71504 3.17799 9.68175 3.25277C9.58516 3.46941 9.58516 3.46941 9.55794 3.50056L9.55433 3.49745C9.41953 3.7518 9.01906 4.44532 7.82962 6.50475C7.78075 6.58921 7.76779 6.68728 7.79272 6.78108C7.81798 6.87488 7.87849 6.95393 7.96229 7.0023C8.22238 7.1517 8.57859 7.05527 8.72683 6.79698L9.72046 5.07668C9.77983 4.97419 9.89987 4.92384 10.015 4.955C10.1295 4.98567 10.209 5.08948 10.209 5.20788V10.616C10.209 10.8712 10.4015 11.0914 10.6382 11.107C10.7746 11.1142 10.9019 11.0685 10.9975 10.973C11.0844 10.8861 11.1323 10.7703 11.1323 10.6465V7.10951C11.1323 6.96487 11.2495 6.84761 11.3942 6.84761C11.5388 6.84761 11.6561 6.96471 11.6561 7.10951L11.6559 11.4505C11.6559 11.705 11.863 11.9121 12.1175 11.9121C12.2412 11.9121 12.3573 11.8642 12.4444 11.7773C12.5313 11.6902 12.5792 11.5741 12.5792 11.4505V7.10951C12.5792 6.96487 12.6963 6.84761 12.8411 6.84761C12.9857 6.84761 13.103 6.9647 13.103 7.10951L13.1028 10.6058V10.6465C13.1028 10.9008 13.3099 11.108 13.5646 11.108C13.6881 11.108 13.8039 11.0599 13.8915 10.9727C13.9784 10.8859 14.0263 10.7701 14.0263 10.6463V7.10932C14.0263 6.96468 14.1434 6.84743 14.2882 6.84743C14.4328 6.84743 14.5501 6.96452 14.5501 7.10932L14.5497 9.77913C14.5497 10.0338 14.7568 10.2409 15.0112 10.2409C15.135 10.2409 15.2508 10.1929 15.3377 10.1061C15.4249 10.0189 15.4727 9.90278 15.4727 9.77913L15.4728 4.36764C15.4728 2.56292 14.137 1.09434 12.4949 1.09434L12.4949 1.09429Z"/>
</mask>
<path d="M15.0112 10.7644C14.8436 10.7644 14.688 10.7184 14.5497 10.6442V10.6462C14.5497 10.9099 14.4472 11.1575 14.2613 11.343C14.0753 11.529 13.8279 11.6315 13.5645 11.6315C13.3944 11.6315 13.2368 11.5843 13.0971 11.5082C13.083 11.7494 12.9865 11.9749 12.8145 12.1471C12.6285 12.3331 12.3811 12.4355 12.1175 12.4355C11.5939 12.4355 11.1686 12.0239 11.138 11.508C10.976 11.5956 10.7928 11.6415 10.6039 11.6293C10.0887 11.5956 9.68534 11.1505 9.68534 10.6159V6.18423L9.18071 7.05847C8.98851 7.39284 8.62873 7.60045 8.24136 7.60045C8.05261 7.60045 7.86615 7.55093 7.70101 7.4563C7.49537 7.33708 7.34827 7.1457 7.28709 6.91675C7.2256 6.68765 7.25741 6.44806 7.3763 6.24273C7.37647 6.24273 9.02738 3.38383 9.12809 3.20822C9.14006 3.18182 9.17418 3.10524 9.2032 3.03997C9.23092 2.97765 9.2547 2.91369 9.27749 2.84941C9.77535 1.44385 11.0081 0.570744 12.4949 0.570744C14.4255 0.570744 15.9963 2.27396 15.9963 4.36752L15.9964 9.77901C15.9964 10.0424 15.8941 10.2898 15.7083 10.476C15.5223 10.662 15.2749 10.7645 15.0112 10.7645L15.0112 10.7644ZM12.4949 1.09429C11.2174 1.09429 10.1991 1.81588 9.77096 3.0245C9.74358 3.10124 9.71504 3.17799 9.68175 3.25277C9.58516 3.46941 9.58516 3.46941 9.55794 3.50056L9.55433 3.49745C9.41953 3.7518 9.01906 4.44532 7.82962 6.50475C7.78075 6.58921 7.76779 6.68728 7.79272 6.78108C7.81798 6.87488 7.87849 6.95393 7.96229 7.0023C8.22238 7.1517 8.57859 7.05527 8.72683 6.79698L9.72046 5.07668C9.77983 4.97419 9.89987 4.92384 10.015 4.955C10.1295 4.98567 10.209 5.08948 10.209 5.20788V10.616C10.209 10.8712 10.4015 11.0914 10.6382 11.107C10.7746 11.1142 10.9019 11.0685 10.9975 10.973C11.0844 10.8861 11.1323 10.7703 11.1323 10.6465V7.10951C11.1323 6.96487 11.2495 6.84761 11.3942 6.84761C11.5388 6.84761 11.6561 6.96471 11.6561 7.10951L11.6559 11.4505C11.6559 11.705 11.863 11.9121 12.1175 11.9121C12.2412 11.9121 12.3573 11.8642 12.4444 11.7773C12.5313 11.6902 12.5792 11.5741 12.5792 11.4505V7.10951C12.5792 6.96487 12.6963 6.84761 12.8411 6.84761C12.9857 6.84761 13.103 6.9647 13.103 7.10951L13.1028 10.6058V10.6465C13.1028 10.9008 13.3099 11.108 13.5646 11.108C13.6881 11.108 13.8039 11.0599 13.8915 10.9727C13.9784 10.8859 14.0263 10.7701 14.0263 10.6463V7.10932C14.0263 6.96468 14.1434 6.84743 14.2882 6.84743C14.4328 6.84743 14.5501 6.96452 14.5501 7.10932L14.5497 9.77913C14.5497 10.0338 14.7568 10.2409 15.0112 10.2409C15.135 10.2409 15.2508 10.1929 15.3377 10.1061C15.4249 10.0189 15.4727 9.90278 15.4727 9.77913L15.4728 4.36764C15.4728 2.56292 14.137 1.09434 12.4949 1.09434L12.4949 1.09429Z" fill="#4CAF4F"/>
<path d="M15.0112 10.7644V9.83635H18.2902L15.4976 11.5549L15.0112 10.7644ZM14.5497 10.6442H13.6216V9.0935L14.9883 9.8263L14.5497 10.6442ZM14.2613 11.343L13.605 10.6868L13.6059 10.6859L14.2613 11.343ZM13.0971 11.5082L12.1706 11.454L12.256 9.99332L13.5409 10.6931L13.0971 11.5082ZM12.8145 12.1471L13.4711 12.803L13.4708 12.8033L12.8145 12.1471ZM11.138 11.508L10.6967 10.6915L11.9781 9.99898L12.0645 11.453L11.138 11.508ZM10.6039 11.6293L10.5444 12.5555L10.5431 12.5555L10.6039 11.6293ZM9.68534 6.18423L8.88154 5.72026L10.6134 2.71985V6.18423H9.68534ZM9.18071 7.05847L8.37607 6.59596L8.37691 6.5945L9.18071 7.05847ZM7.70101 7.4563L7.23959 8.26158L7.23553 8.25922L7.70101 7.4563ZM7.28709 6.91675L8.18346 6.67614L8.18373 6.67719L7.28709 6.91675ZM7.3763 6.24273L6.57314 5.77767L6.84125 5.31464H7.3763V6.24273ZM9.12809 3.20822L9.97335 3.59148L9.95513 3.63167L9.93318 3.66995L9.12809 3.20822ZM9.2032 3.03997L8.35519 2.66284L8.35519 2.66283L9.2032 3.03997ZM9.27749 2.84941L10.1523 3.15928L10.1522 3.15953L9.27749 2.84941ZM15.9963 4.36752L15.0682 4.36755V4.36752H15.9963ZM15.9964 9.77901L16.9245 9.77898V9.77901H15.9964ZM15.7083 10.476L16.3652 11.1316L16.3645 11.1323L15.7083 10.476ZM15.0112 10.7645V11.6926H11.7322L14.5248 9.97404L15.0112 10.7645ZM12.4949 1.09429V0.166194H13.7253L13.3873 1.34925L12.4949 1.09429ZM9.77096 3.0245L10.6458 3.33442L10.6451 3.33641L9.77096 3.0245ZM9.68175 3.25277L10.5296 3.63023L10.5294 3.63072L9.68175 3.25277ZM9.55794 3.50056L10.2568 4.11122L9.64969 4.8061L8.95132 4.20297L9.55794 3.50056ZM9.55433 3.49745L8.73428 3.06285L9.2796 2.03389L10.1609 2.79505L9.55433 3.49745ZM7.82962 6.50475L8.6333 6.96892L8.63292 6.96959L7.82962 6.50475ZM7.79272 6.78108L6.89654 7.02235L6.89577 7.01945L7.79272 6.78108ZM7.96229 7.0023L7.50003 7.80708L7.49829 7.80608L7.96229 7.0023ZM8.72683 6.79698L7.92188 6.335L7.92316 6.33279L8.72683 6.79698ZM9.72046 5.07668L8.91679 4.61249L8.91736 4.61152L9.72046 5.07668ZM10.015 4.955L9.77482 5.85149L9.77252 5.85086L10.015 4.955ZM10.6382 11.107L10.5892 12.0339L10.5772 12.0331L10.6382 11.107ZM10.9975 10.973L11.6537 11.6293L11.6532 11.6298L10.9975 10.973ZM11.6561 7.10951H12.5842V7.10955L11.6561 7.10951ZM11.6559 11.4505H10.7278V11.4504L11.6559 11.4505ZM12.4444 11.7773L13.1013 12.4329L13.1 12.4342L12.4444 11.7773ZM13.103 7.10951H14.0311V7.10955L13.103 7.10951ZM13.1028 10.6058H12.1747V10.6058L13.1028 10.6058ZM13.8915 10.9727L14.5471 11.6295L14.5465 11.6301L13.8915 10.9727ZM14.5501 7.10932H15.4781V7.10944L14.5501 7.10932ZM14.5497 9.77913H13.6216V9.77902L14.5497 9.77913ZM15.3377 10.1061L15.994 10.7624L15.9933 10.763L15.3377 10.1061ZM15.4727 9.77913H14.5446V9.7791L15.4727 9.77913ZM15.4728 4.36764H16.4009V4.36767L15.4728 4.36764ZM12.4949 1.09434V2.02243H11.2645L11.6025 0.839374L12.4949 1.09434ZM15.0112 11.6925C14.6695 11.6925 14.3644 11.5979 14.1112 11.4622L14.9883 9.8263C15.0003 9.83273 15.0079 9.83519 15.0109 9.836C15.0135 9.8367 15.0132 9.83635 15.0112 9.83635V11.6925ZM15.4778 10.6442V10.6462H13.6216V10.6442H15.4778ZM15.4778 10.6462C15.4778 11.1553 15.2781 11.6397 14.9167 12.0001L13.6059 10.6859C13.6125 10.6793 13.6158 10.6736 13.6177 10.669C13.6196 10.6643 13.6216 10.6572 13.6216 10.6462H15.4778ZM14.9175 11.9993C14.5574 12.3594 14.0738 12.5596 13.5645 12.5596V10.7034C13.5751 10.7034 13.5821 10.7015 13.5869 10.6995C13.5916 10.6975 13.5978 10.694 13.605 10.6868L14.9175 11.9993ZM13.5645 12.5596C13.2183 12.5596 12.9093 12.4627 12.6532 12.3232L13.5409 10.6931C13.553 10.6997 13.5607 10.7022 13.5637 10.703C13.5663 10.7037 13.5661 10.7034 13.5645 10.7034V12.5596ZM14.0236 11.5623C13.9969 12.0191 13.8116 12.4622 13.4711 12.803L12.1579 11.4912C12.1614 11.4877 12.1633 11.4847 12.165 11.4808C12.1669 11.4767 12.1697 11.4682 12.1706 11.454L14.0236 11.5623ZM13.4708 12.8033C13.1105 13.1636 12.6269 13.3636 12.1175 13.3636V11.5075C12.1283 11.5075 12.1354 11.5055 12.1401 11.5035C12.1449 11.5016 12.151 11.4981 12.1583 11.4908L13.4708 12.8033ZM12.1175 13.3636C11.0929 13.3636 10.2707 12.5595 10.2115 11.563L12.0645 11.453C12.0654 11.4688 12.0719 11.4826 12.0833 11.4935C12.0889 11.4988 12.0945 11.5022 12.0994 11.5042C12.1037 11.506 12.1092 11.5075 12.1175 11.5075V13.3636ZM11.5793 12.3245C11.2795 12.4865 10.9241 12.5799 10.5444 12.5555L10.6634 10.7032C10.6634 10.7032 10.6654 10.7034 10.6703 10.7022C10.6755 10.701 10.6846 10.6981 10.6967 10.6915L11.5793 12.3245ZM10.5431 12.5555C9.51264 12.4879 8.75724 11.6115 8.75724 10.6159H10.6134C10.6134 10.6472 10.6248 10.6714 10.6391 10.6872C10.653 10.7025 10.6625 10.7031 10.6646 10.7032L10.5431 12.5555ZM8.75724 10.6159V6.18423H10.6134V10.6159H8.75724ZM10.4891 6.6482L9.98451 7.52243L8.37691 6.5945L8.88154 5.72026L10.4891 6.6482ZM9.98535 7.52097C9.62673 8.14488 8.95919 8.52855 8.24136 8.52855V6.67236C8.29827 6.67236 8.3503 6.6408 8.37607 6.59596L9.98535 7.52097ZM8.24136 8.52855C7.89039 8.52855 7.54491 8.43651 7.23959 8.26157L8.16243 6.65104C8.18739 6.66534 8.21482 6.67236 8.24136 6.67236V8.52855ZM7.23553 8.25922C6.81884 8.01766 6.51555 7.62453 6.39045 7.15632L8.18373 6.67719C8.18289 6.67402 8.18057 6.66841 8.1761 6.66259C8.17167 6.65681 8.16756 6.654 8.1665 6.65339L7.23553 8.25922ZM6.39073 7.15736C6.26514 6.68949 6.33089 6.19603 6.57314 5.77767L8.17947 6.70779C8.18079 6.7055 8.18311 6.70021 8.18411 6.69271C8.1851 6.68519 8.18427 6.67918 8.18345 6.67614L6.39073 7.15736ZM7.3763 5.31464C6.92104 5.43397 6.58028 5.76556 6.57773 5.76983C6.57688 5.77126 6.57562 5.77341 6.57522 5.7741C6.57499 5.77449 6.57459 5.77517 6.57446 5.7754C6.57438 5.77554 6.57421 5.77583 6.57416 5.7759C6.57403 5.77613 6.57407 5.77606 6.57442 5.77545C6.57506 5.77437 6.57611 5.77254 6.57765 5.76987C6.5807 5.7646 6.58528 5.75668 6.59133 5.74621C6.60342 5.7253 6.62117 5.69456 6.64384 5.65532C6.68918 5.57684 6.75405 5.46451 6.83223 5.32914C6.98858 5.0584 7.19809 4.69558 7.41075 4.32727C7.83677 3.58941 8.27353 2.83275 8.323 2.74649L9.93318 3.66995C9.88193 3.7593 9.44289 4.5199 9.01823 5.25539C8.80555 5.62375 8.59601 5.98663 8.43962 6.25742C8.36143 6.39282 8.29652 6.50521 8.25114 6.58377C8.22846 6.62304 8.21063 6.65389 8.19846 6.67495C8.19239 6.68546 8.18768 6.69361 8.18446 6.69917C8.18287 6.70192 8.18156 6.70419 8.18059 6.70586C8.18015 6.70663 8.17959 6.70759 8.17905 6.70851C8.17886 6.70885 8.17826 6.70987 8.17755 6.7111C8.17709 6.71187 8.17579 6.71408 8.17492 6.71556C8.17235 6.71988 7.83157 7.05149 7.3763 7.17082V5.31464ZM8.28283 2.82496C8.29304 2.80243 8.32541 2.72979 8.35519 2.66284L10.0512 3.41709C10.0229 3.48069 9.98708 3.56121 9.97335 3.59148L8.28283 2.82496ZM8.35519 2.66283C8.36809 2.63382 8.38236 2.59676 8.40275 2.53928L10.1522 3.15953C10.127 3.23062 10.0937 3.32147 10.0512 3.4171L8.35519 2.66283ZM8.40266 2.53953C9.03125 0.764915 10.6134 -0.357349 12.4949 -0.357349V1.49884C11.4028 1.49884 10.5195 2.12278 10.1523 3.15928L8.40266 2.53953ZM12.4949 -0.357349C15.0075 -0.357349 16.9244 1.83359 16.9244 4.36752H15.0682C15.0682 2.71432 13.8436 1.49884 12.4949 1.49884V-0.357349ZM16.9244 4.36749L16.9245 9.77898L15.0683 9.77904L15.0682 4.36755L16.9244 4.36749ZM16.9245 9.77901C16.9245 10.288 16.7248 10.7713 16.3652 11.1316L15.0514 9.82034C15.0588 9.81299 15.0623 9.80674 15.0643 9.80187C15.0664 9.79699 15.0683 9.78983 15.0683 9.77901H16.9245ZM16.3645 11.1323C16.0043 11.4925 15.5207 11.6926 15.0112 11.6926V9.83637C15.0221 9.83637 15.0292 9.83438 15.0339 9.83242C15.0387 9.83047 15.0448 9.82697 15.052 9.81974L16.3645 11.1323ZM14.5248 9.97404L14.5248 9.97402L15.4976 11.5549L15.4976 11.5549L14.5248 9.97404ZM12.4949 2.02238C11.6125 2.02238 10.9434 2.49442 10.6458 3.33442L8.89615 2.71458C9.45491 1.13733 10.8223 0.166194 12.4949 0.166194V2.02238ZM10.6451 3.33641C10.6158 3.41851 10.5777 3.5222 10.5296 3.63023L8.83388 2.87532C8.85237 2.83379 8.87138 2.78398 8.89686 2.71258L10.6451 3.33641ZM10.5294 3.63072C10.4869 3.72604 10.4513 3.80654 10.424 3.86107C10.4071 3.89491 10.3798 3.94707 10.3401 4.00484C10.2998 4.06337 10.2601 4.10752 10.2568 4.11122L8.85904 2.88991C8.86122 2.88742 8.8605 2.88823 8.8594 2.8895C8.85799 2.89115 8.85438 2.89536 8.84965 2.90113C8.84475 2.9071 8.83857 2.91482 8.83162 2.924C8.82459 2.93326 8.81745 2.94311 8.81031 2.9535C8.79577 2.97466 8.78457 2.99319 8.77661 3.0072C8.76918 3.02029 8.76463 3.02934 8.76361 3.03138C8.76256 3.03349 8.76322 3.03225 8.76637 3.0255C8.76943 3.01895 8.77375 3.00953 8.77996 2.99582C8.78612 2.98222 8.79349 2.9658 8.80256 2.94551C8.81162 2.92525 8.82197 2.90204 8.8341 2.87483L10.5294 3.63072ZM8.95132 4.20297L8.94771 4.19985L10.1609 2.79505L10.1646 2.79816L8.95132 4.20297ZM10.3744 3.93205C10.2291 4.20613 9.81444 4.92386 8.6333 6.96892L7.02594 6.04058C8.22368 3.96678 8.60994 3.29747 8.73428 3.06285L10.3744 3.93205ZM8.63292 6.96959C8.70718 6.84126 8.72788 6.68642 8.68968 6.5427L6.89577 7.01945C6.80771 6.68813 6.85432 6.33716 7.02633 6.03991L8.63292 6.96959ZM8.6889 6.5398C8.65071 6.39795 8.55685 6.27389 8.42629 6.19852L7.49829 7.80608C7.20014 7.63396 6.98524 7.35181 6.89654 7.02235L8.6889 6.5398ZM8.42456 6.19753C8.31892 6.13684 8.21617 6.13724 8.14522 6.15635C8.07454 6.17537 7.98392 6.22692 7.92189 6.335L9.53177 7.25897C9.12729 7.96372 8.20289 8.21081 7.50003 7.80708L8.42456 6.19753ZM7.92316 6.33279L8.91679 4.61249L10.5241 5.54088L9.5305 7.26118L7.92316 6.33279ZM8.91736 4.61152C9.18543 4.1487 9.73259 3.91708 10.2575 4.05914L9.77252 5.85086C10.0671 5.9306 10.3742 5.79968 10.5236 5.54186L8.91736 4.61152ZM10.2552 4.05853C10.7758 4.19802 11.1371 4.66986 11.1371 5.20788H9.2809C9.2809 5.5091 9.48308 5.77332 9.77482 5.85148L10.2552 4.05853ZM11.1371 5.20788V10.616H9.2809V5.20788H11.1371ZM11.1371 10.616C11.1371 10.5103 11.0979 10.4141 11.0336 10.3405C10.9694 10.2671 10.8561 10.1912 10.6991 10.1809L10.5772 12.0331C9.79595 11.9817 9.2809 11.3011 9.2809 10.616H11.1371ZM10.6872 10.1802C10.5775 10.1744 10.4436 10.2146 10.3418 10.3162L11.6532 11.6298C11.3602 11.9223 10.9717 12.054 10.5892 12.0338L10.6872 10.1802ZM10.3412 10.3167C10.2531 10.4048 10.2042 10.5255 10.2042 10.6465H12.0604C12.0604 11.0151 11.9157 11.3674 11.6537 11.6293L10.3412 10.3167ZM10.2042 10.6465V7.10951H12.0604V10.6465H10.2042ZM10.2042 7.10951C10.2042 6.4523 10.737 5.91952 11.3942 5.91952V7.77571C11.7621 7.77571 12.0604 7.47744 12.0604 7.10951H10.2042ZM11.3942 5.91952C12.051 5.91952 12.5842 6.45176 12.5842 7.10951H10.728C10.728 7.47765 11.0266 7.77571 11.3942 7.77571V5.91952ZM12.5842 7.10955L12.584 11.4505L10.7278 11.4504L10.728 7.10948L12.5842 7.10955ZM12.584 11.4505C12.584 11.1924 12.3756 10.984 12.1175 10.984V12.8402C11.3505 12.8402 10.7278 12.2176 10.7278 11.4505H12.584ZM12.1175 10.984C11.9968 10.984 11.8767 11.0327 11.7888 11.1204L13.1 12.4342C12.8379 12.6957 12.4856 12.8402 12.1175 12.8402V10.984ZM11.7875 11.1217C11.6998 11.2096 11.6511 11.3297 11.6511 11.4505H13.5073C13.5073 11.8185 13.3628 12.1709 13.1013 12.4329L11.7875 11.1217ZM11.6511 11.4505V7.10951H13.5073V11.4505H11.6511ZM11.6511 7.10951C11.6511 6.45268 12.1833 5.91952 12.8411 5.91952V7.7757C13.2092 7.7757 13.5073 7.47705 13.5073 7.10951H11.6511ZM12.8411 5.91952C13.4979 5.91952 14.0311 6.45175 14.0311 7.10951H12.1749C12.1749 7.47765 12.4735 7.7757 12.8411 7.7757V5.91952ZM14.0311 7.10955L14.0309 10.6059L12.1747 10.6058L12.1749 7.10946L14.0311 7.10955ZM14.0309 10.6058V10.6465H12.1747V10.6058H14.0309ZM14.0309 10.6465C14.0309 10.3878 13.8221 10.1799 13.5646 10.1799V12.036C12.7978 12.036 12.1747 11.4139 12.1747 10.6465H14.0309ZM13.5646 10.1799C13.4413 10.1799 13.3219 10.23 13.2364 10.3152L14.5465 11.6301C14.2859 11.8898 13.9349 12.036 13.5646 12.036V10.1799ZM13.2358 10.3158C13.147 10.4044 13.0982 10.5255 13.0982 10.6463H14.9544C14.9544 11.0148 14.8097 11.3674 14.5471 11.6295L13.2358 10.3158ZM13.0982 10.6463V7.10932H14.9544V10.6463H13.0982ZM13.0982 7.10932C13.0982 6.45248 13.6304 5.91934 14.2882 5.91934V7.77552C14.6563 7.77552 14.9544 7.47688 14.9544 7.10932H13.0982ZM14.2882 5.91934C14.945 5.91934 15.4781 6.45157 15.4781 7.10932H13.622C13.622 7.47747 13.9206 7.77552 14.2882 7.77552V5.91934ZM15.4781 7.10944L15.4778 9.77925L13.6216 9.77902L13.622 7.10921L15.4781 7.10944ZM15.4778 9.77913C15.4778 9.52168 15.2699 9.31284 15.0112 9.31284V11.169C14.2438 11.169 13.6216 10.5459 13.6216 9.77913H15.4778ZM15.0112 9.31284C14.8894 9.31284 14.7693 9.36214 14.6821 9.44926L15.9933 10.763C15.7322 11.0236 15.3806 11.169 15.0112 11.169V9.31284ZM14.6814 9.44988C14.5931 9.53825 14.5446 9.65886 14.5446 9.77913H16.4008C16.4008 10.1467 16.2568 10.4995 15.994 10.7624L14.6814 9.44988ZM14.5446 9.7791L14.5447 4.36761L16.4009 4.36767L16.4008 9.77916L14.5446 9.7791ZM14.5447 4.36764C14.5447 2.99091 13.5437 2.02243 12.4949 2.02243V0.166247C14.7302 0.166247 16.4009 2.13493 16.4009 4.36764H14.5447ZM11.6025 0.839374L11.6025 0.83932L13.3873 1.34925L13.3873 1.34931L11.6025 0.839374Z" fill="#4CAF4F" mask="url(#path-1-inside-1_211_2339)"/>
<path d="M6.52862 15.7396C6.40432 15.8144 6.2436 15.774 6.16932 15.6499C6.09486 15.5259 6.1352 15.365 6.25902 15.2906M6.52862 15.7396L8.79123 12.6951C9.00983 12.5637 9.29812 12.6155 9.43292 12.8105M6.52862 15.7396L9.56149 13.9201H9.56166L9.56198 13.9199M6.52862 15.7396L10.726 14.2983C10.8319 14.2346 10.9067 14.1339 10.9366 14.0144M6.25902 15.2906L9.29206 13.4711C9.39799 13.4075 9.47294 13.3066 9.50278 13.1874M6.25902 15.2906L6.28972 15.3418L6.39372 15.5151L6.39393 15.5155L6.44079 15.5936L6.49774 15.6885L6.49785 15.6885L6.49792 15.6884L6.49815 15.6883M6.25902 15.2906L6.28978 15.3417M9.50278 13.1874C9.53558 13.0565 9.51066 12.9227 9.43292 12.8105M9.50278 13.1874L9.57764 13.2061L9.57049 13.0523C9.56557 12.9463 9.53458 12.8524 9.48217 12.7768L9.48202 12.7766L9.43292 12.8105M9.50278 13.1874L9.57764 13.2061L9.58502 13.365L9.43318 13.4561H9.43297L9.32276 13.5222L9.32274 13.5222L9.32272 13.5222L6.28989 15.3417M9.43292 12.8105L9.48199 12.7765L7.24267 16.929C7.3379 16.8718 7.36939 16.7479 7.31165 16.6517C7.2544 16.5564 7.13013 16.525 7.03442 16.5824L10.0673 14.763C10.137 14.7212 10.21 14.6896 10.2846 14.6678L10.755 14.3466L10.755 14.3466L10.7809 14.3289C10.8913 14.2536 10.9643 14.1492 10.9943 14.029L10.9943 14.0288L10.9366 14.0144M6.28989 15.3417C6.38534 15.2846 6.50957 15.3156 6.56714 15.411C6.56726 15.4112 6.56739 15.4114 6.56751 15.4116C6.62474 15.5077 6.59318 15.6311 6.49815 15.6883M6.28989 15.3417C6.28986 15.3417 6.28982 15.3417 6.28978 15.3417M6.28989 15.3417L6.28978 15.3417M6.49815 15.6883L9.53077 13.869L9.53083 13.869L9.53099 13.8689C9.53108 13.8688 9.53117 13.8688 9.53126 13.8687L9.56149 13.9191L9.56166 13.9194L9.56198 13.9199M6.49815 15.6883L6.39417 15.5154L6.39396 15.515L6.35878 15.4565L6.28978 15.3417M9.56198 13.9199V13.8495C9.62051 13.8111 9.67406 13.7667 9.72188 13.7171L10.2211 13.4566L10.2211 13.4565L10.2488 13.4421C10.329 13.4002 10.4099 13.3806 10.4868 13.3806C10.5284 13.3806 10.5713 13.3858 10.6149 13.3966C10.615 13.3966 10.615 13.3966 10.615 13.3966C10.6152 13.3967 10.6153 13.3967 10.6154 13.3967L10.7131 13.0043M9.56198 13.9199L10.2511 13.5065C10.3567 13.4432 10.4803 13.4247 10.6005 13.4545C10.7201 13.4844 10.821 13.5592 10.8844 13.6649C10.9479 13.7709 10.9664 13.895 10.9366 14.0144M10.7131 13.0043C10.7131 13.0043 10.7131 13.0043 10.7131 13.0043M10.7131 13.0043C10.9523 13.0641 11.1556 13.215 11.2823 13.4261L11.3334 13.3954M10.7131 13.0043L10.7276 12.9464M10.7131 13.0043L10.6151 13.3966C10.7508 13.4306 10.8633 13.514 10.9354 13.6341C10.9354 13.6342 10.9355 13.6342 10.9355 13.6343C10.9355 13.6343 10.9355 13.6343 10.9355 13.6343C11.0078 13.755 11.0282 13.8935 10.9944 14.0287L10.9943 14.0288L10.9366 14.0144M10.7131 13.0043C10.713 13.0043 10.713 13.0043 10.7129 13.0043L10.7124 13.0042C10.6407 12.9864 10.568 12.9772 10.4957 12.9766M10.7131 13.0043L10.7276 12.9464M10.2755 15.1097L10.5371 14.9527L10.8068 15.1119C10.8876 15.1595 10.9487 15.2192 10.99 15.2882L10.9901 15.2884C10.9902 15.2885 10.9902 15.2886 10.9903 15.2886L10.9393 15.3193M10.2755 15.1097L11.0493 15.6833C11.083 15.5476 11.0625 15.4093 10.9903 15.2887L10.9393 15.3193M10.2755 15.1097L10.3062 15.1608M10.2755 15.1097L10.2755 15.1097L10.3062 15.1608M10.9393 15.3193C10.8083 15.101 10.5241 15.03 10.3062 15.1608M10.9393 15.3193C11.003 15.425 11.0215 15.5493 10.9917 15.6689L10.3062 15.1608M11.3815 15.039C11.3838 15.0426 11.386 15.0462 11.3881 15.0498L11.3815 15.039ZM11.3815 15.039C11.3659 15.0512 11.3499 15.0631 11.3338 15.0747C11.3348 15.0765 11.3359 15.0783 11.337 15.0801L11.3815 15.039ZM11.3093 14.3312C11.3427 14.2671 11.3688 14.1987 11.3868 14.1269L11.3093 14.3312ZM11.3093 14.3312C11.326 14.3416 11.3425 14.3523 11.3588 14.3633C11.3961 14.2941 11.425 14.2197 11.4445 14.1413C11.5083 13.8863 11.4688 13.6214 11.3334 13.3954M11.3093 14.3312L11.3868 14.1268C11.4465 13.8877 11.4089 13.6374 11.2825 13.4264L11.2823 13.4262C11.2823 13.4261 11.2823 13.4261 11.2823 13.4261L11.3334 13.3954M11.3334 13.3954C11.1981 13.1698 10.9829 13.0102 10.7276 12.9464M10.7276 12.9464L10.4905 12.9166M10.4905 12.9166C10.4926 12.9366 10.4944 12.9566 10.4957 12.9766M10.4905 12.9166C10.4893 12.9166 10.488 12.9166 10.4868 12.9166C10.3299 12.9166 10.1757 12.9568 10.034 13.0307M10.4905 12.9166L10.034 13.0307M10.4957 12.9766C10.4965 12.9875 10.4971 12.9983 10.4976 13.0092L10.4868 13.0097L10.1987 13.0231M10.4957 12.9766C10.4928 12.9766 10.4898 12.9766 10.4868 12.9766C10.3889 12.9767 10.2918 12.9923 10.1987 13.0231M10.1987 13.0231L10.034 13.0307M10.1987 13.0231C10.1515 13.0387 10.1053 13.0582 10.0606 13.0816C10.0443 13.09 10.0283 13.099 10.0125 13.1085L10.0123 13.1086L9.97934 13.1284M10.034 13.0307L9.76956 13.2542L9.76965 13.2542L9.95294 13.3001C9.95293 13.3001 9.95292 13.3002 9.95291 13.3002C9.96722 13.2431 9.97597 13.1856 9.97934 13.1284M10.034 13.0307L9.96319 12.895M10.034 13.0307C10.0267 12.8726 9.98501 12.7169 9.90502 12.578C9.88683 12.5861 9.86881 12.5945 9.85097 12.6033M9.97934 13.1284C9.98122 13.0966 9.98143 13.0648 9.98001 13.0332C9.97792 12.9867 9.97229 12.9405 9.96319 12.895M9.97934 13.1284L9.96319 12.895M9.96319 12.895L9.81931 12.6194C9.8298 12.6139 9.84035 12.6085 9.85097 12.6033M9.96319 12.895L9.81443 12.5464C9.82734 12.565 9.83952 12.584 9.85097 12.6033M9.96319 12.895C9.9428 12.793 9.90503 12.6945 9.85097 12.6033M11.0426 14.7122L11.1219 14.5777C11.0876 14.6098 11.0506 14.6395 11.0113 14.6663C10.9962 14.6767 10.9807 14.6866 10.9649 14.6961L10.9647 14.6962L10.9312 14.7163L11.0426 14.7122ZM3.63179 12.5526L3.57903 12.5248C3.56934 12.5422 3.54519 12.5857 3.50952 12.65C3.50069 12.6659 3.49115 12.6831 3.48095 12.7015C3.49914 12.7105 3.51748 12.7185 3.53585 12.7254C3.56722 12.6689 3.5992 12.6113 3.63179 12.5526ZM7.77877 17.8232C7.77872 17.8232 7.77867 17.8232 7.77863 17.8233L7.77877 17.8232Z" fill="#4CAF4F" stroke="#4CAF4F" stroke-width="0.928093"/>
<path d="M19.4806 13.3884L19.4805 13.3885L19.4806 13.3884ZM19.4806 13.3884C19.3833 13.2143 19.3873 12.9998 19.4903 12.8281L19.4806 13.3884ZM13.739 12.9762C13.6665 12.9768 13.5936 12.986 13.5216 13.004L13.739 12.9762ZM13.739 12.9762C13.7403 12.9562 13.7421 12.9363 13.7442 12.9163L13.739 12.9762ZM19.0629 13.7139L19.0235 13.6429L19.0629 13.7139ZM17.9448 15.3414C17.9447 15.3413 17.9446 15.3413 17.9445 15.3412L17.9446 15.3413L17.9448 15.3414ZM16.4559 17.8234C16.4558 17.8233 16.4557 17.8232 16.4556 17.8232L16.4559 17.8234ZM16.4554 17.8231L16.4556 17.8231L16.4554 17.8231Z" fill="#4CAF4F" stroke="#4CAF4F" stroke-width="0.928093"/>
</svg>
