<svg width="108" height="17" viewBox="0 0 108 17" fill="none" xmlns="http://www.w3.org/2000/svg">
<path d="M13.3106 9.17139L9.55815 15.5981L5.80572 9.17139H13.3106ZM14.3159 8.59698H4.79639L9.55815 16.7349L14.3159 8.59698Z" fill="#263238"/>
<path d="M19.8347 1.17801L23.5871 7.60475H16.0822L19.8347 1.17801ZM19.8347 0.0292358L15.0729 8.16709H24.5964L19.8347 0.0292358Z" fill="#263238"/>
<path d="M0.234009 0.0292358L4.2266 7.22719L8.58952 0.209978L0.234009 0.0292358Z" fill="#4CAF4F"/>
<path d="M9.55825 0.65979L13.7462 7.81758H5.36218L9.55825 0.65979Z" fill="#4CAF4F"/>
<path d="M14.8247 9.38025L19.0167 16.7349H10.4332L14.6944 9.38025H14.8247Z" fill="#4CAF4F"/>
<path d="M15.7323 8.93439L19.8348 16.1765L23.9942 8.93439H15.7323Z" fill="#4CAF4F"/>
<path d="M42.021 1.19098V15.3655H39.4325L33.2657 6.44413H33.1619V15.3655H30.165V1.19098H32.7951L38.9134 10.1054H39.0379V1.19098H42.021Z" fill="#263238"/>
<path d="M49.2864 15.5731C48.1929 15.5731 47.2516 15.3516 46.4626 14.9087C45.6782 14.4611 45.0738 13.829 44.6493 13.0123C44.2248 12.191 44.0125 11.2197 44.0125 10.0985C44.0125 9.00495 44.2248 8.04522 44.6493 7.2193C45.0738 6.39337 45.6713 5.74971 46.4418 5.2883C47.217 4.82689 48.126 4.59618 49.1688 4.59618C49.8701 4.59618 50.523 4.70923 51.1275 4.93532C51.7365 5.1568 52.2671 5.49132 52.7193 5.93888C53.1761 6.38645 53.5314 6.94937 53.7852 7.62764C54.039 8.3013 54.1658 9.09031 54.1658 9.99468V10.8045H45.1891V8.97727H51.3905C51.3905 8.55277 51.2982 8.17672 51.1136 7.84912C50.9291 7.52152 50.673 7.26544 50.3454 7.08087C50.0224 6.8917 49.6463 6.79711 49.2172 6.79711C48.7697 6.79711 48.3728 6.90092 48.0268 7.10856C47.6853 7.31158 47.4177 7.58612 47.2239 7.93217C47.0301 8.27362 46.9309 8.65428 46.9263 9.07416V10.8114C46.9263 11.3374 47.0232 11.7919 47.217 12.1748C47.4154 12.5578 47.6946 12.8531 48.0545 13.0607C48.4144 13.2684 48.8412 13.3722 49.3349 13.3722C49.6625 13.3722 49.9624 13.3261 50.2346 13.2338C50.5069 13.1415 50.7399 13.0031 50.9337 12.8185C51.1275 12.6339 51.2751 12.4078 51.3766 12.1402L54.1036 12.3202C53.9651 12.9754 53.6814 13.5475 53.2522 14.0366C52.8278 14.5211 52.2787 14.8995 51.605 15.1717C50.936 15.4393 50.1631 15.5731 49.2864 15.5731Z" fill="#263238"/>
<path d="M58.3635 4.73461L60.3153 8.45126L62.3155 4.73461H65.34L62.2601 10.05L65.4231 15.3655H62.4124L60.3153 11.6904L58.2528 15.3655H55.2075L58.3635 10.05L55.3182 4.73461H58.3635Z" fill="#263238"/>
<path d="M71.5137 15.5731C70.4248 15.5731 69.4881 15.3424 68.7037 14.881C67.9239 14.415 67.3241 13.769 66.9042 12.9431C66.4889 12.1172 66.2813 11.1667 66.2813 10.0916C66.2813 9.00265 66.4912 8.04753 66.9111 7.22622C67.3356 6.40029 67.9378 5.75663 68.7175 5.29522C69.4973 4.82919 70.4248 4.59618 71.4998 4.59618C72.4273 4.59618 73.2394 4.7646 73.9361 5.10143C74.6328 5.43825 75.1842 5.9112 75.5902 6.52026C75.9963 7.12932 76.2201 7.84451 76.2616 8.66582H73.4793C73.4009 8.13519 73.1932 7.70839 72.8564 7.3854C72.5242 7.0578 72.0881 6.894 71.5483 6.894C71.0915 6.894 70.6924 7.01858 70.3509 7.26774C70.0141 7.51229 69.7511 7.86989 69.5619 8.34052C69.3727 8.81116 69.2782 9.381 69.2782 10.05C69.2782 10.7283 69.3704 11.3051 69.555 11.7803C69.7442 12.2556 70.0095 12.6178 70.3509 12.867C70.6924 13.1161 71.0915 13.2407 71.5483 13.2407C71.8851 13.2407 72.1874 13.1715 72.455 13.0331C72.7272 12.8946 72.951 12.6939 73.1263 12.4309C73.3063 12.1633 73.4239 11.8426 73.4793 11.4689H76.2616C76.2155 12.281 75.994 12.9961 75.5972 13.6144C75.205 14.2281 74.6628 14.708 73.9707 15.054C73.2786 15.4001 72.4596 15.5731 71.5137 15.5731Z" fill="#263238"/>
<path d="M82.9941 15.5731C81.9006 15.5731 80.9593 15.3516 80.1703 14.9087C79.3859 14.4611 78.7815 13.829 78.357 13.0123C77.9325 12.191 77.7202 11.2197 77.7202 10.0985C77.7202 9.00495 77.9325 8.04522 78.357 7.2193C78.7815 6.39337 79.379 5.74971 80.1495 5.2883C80.9247 4.82689 81.8337 4.59618 82.8765 4.59618C83.5778 4.59618 84.2307 4.70923 84.8352 4.93532C85.4442 5.1568 85.9748 5.49132 86.427 5.93888C86.8838 6.38645 87.2391 6.94937 87.4929 7.62764C87.7467 8.3013 87.8735 9.09031 87.8735 9.99468V10.8045H78.8968V8.97727H85.0982C85.0982 8.55277 85.0059 8.17672 84.8213 7.84912C84.6368 7.52152 84.3807 7.26544 84.0531 7.08087C83.7301 6.8917 83.354 6.79711 82.9249 6.79711C82.4774 6.79711 82.0806 6.90092 81.7345 7.10856C81.393 7.31158 81.1254 7.58612 80.9316 7.93217C80.7378 8.27362 80.6386 8.65428 80.634 9.07416V10.8114C80.634 11.3374 80.7309 11.7919 80.9247 12.1748C81.1231 12.5578 81.4023 12.8531 81.7622 13.0607C82.1221 13.2684 82.5489 13.3722 83.0426 13.3722C83.3702 13.3722 83.6701 13.3261 83.9423 13.2338C84.2146 13.1415 84.4476 13.0031 84.6414 12.8185C84.8352 12.6339 84.9828 12.4078 85.0843 12.1402L87.8113 12.3202C87.6728 12.9754 87.3891 13.5475 86.96 14.0366C86.5355 14.5211 85.9864 14.8995 85.3127 15.1717C84.6437 15.4393 83.8708 15.5731 82.9941 15.5731Z" fill="#263238"/>
<path d="M92.746 9.21951V15.3655H89.7976V4.73461H92.6076V6.61024H92.7322C92.9675 5.99195 93.362 5.50285 93.9157 5.14295C94.4694 4.77844 95.1407 4.59618 95.9298 4.59618C96.668 4.59618 97.3117 4.75768 97.8608 5.08066C98.4098 5.40365 98.8366 5.86506 99.1412 6.46489C99.4457 7.06011 99.598 7.77068 99.598 8.5966V15.3655H96.6496V9.12261C96.6542 8.47202 96.4881 7.96447 96.1512 7.59996C95.8144 7.23083 95.3507 7.04627 94.7601 7.04627C94.3633 7.04627 94.0126 7.13163 93.7081 7.30235C93.4082 7.47307 93.1728 7.72223 93.0021 8.04983C92.836 8.37282 92.7506 8.76271 92.746 9.21951Z" fill="#263238"/>
<path d="M107.576 4.73461V6.94937H101.174V4.73461H107.576ZM102.628 2.18762H105.576V12.0987C105.576 12.3709 105.618 12.5832 105.701 12.7354C105.784 12.8831 105.899 12.9869 106.047 13.0469C106.199 13.1069 106.374 13.1369 106.573 13.1369C106.711 13.1369 106.85 13.1253 106.988 13.1023C107.126 13.0746 107.233 13.0538 107.306 13.04L107.77 15.234C107.622 15.2801 107.415 15.3332 107.147 15.3932C106.88 15.4578 106.554 15.497 106.171 15.5108C105.461 15.5385 104.838 15.4439 104.303 15.2271C103.772 15.0102 103.359 14.6734 103.064 14.2166C102.768 13.7598 102.623 13.183 102.628 12.4863V2.18762Z" fill="#263238"/>
</svg>
