<svg width="46" height="40" viewBox="0 0 46 40" fill="none" xmlns="http://www.w3.org/2000/svg">
<path d="M45.9187 27.4136C45.9187 34.3333 40.3092 39.9429 33.3894 39.9429L14.5956 39.9429C12.6734 39.9429 11.1152 38.3847 11.1152 36.4625L11.1152 12.7962C11.1152 8.95187 14.2316 5.83547 18.0759 5.83547L42.4384 5.83547C44.3605 5.83547 45.9187 7.39367 45.9187 9.31581L45.9187 27.4136Z" fill="#E8F5E9"/>
<path d="M17.3729 7.92383C14.8871 7.92383 12.8634 9.96602 12.8634 12.4624C12.8634 14.0417 13.6743 15.4361 14.8989 16.2489C13.4199 16.7435 12.1401 17.6678 11.2014 18.877C10.6824 18.4778 10.1025 18.1567 9.47742 17.9267C10.4254 17.2229 11.0448 16.0924 11.0448 14.8219C11.0448 12.7046 9.33245 10.9713 7.22801 10.9713C5.12358 10.9713 3.41119 12.7046 3.41119 14.8219C3.41119 16.0932 4.03118 17.2242 4.97993 17.9279C2.46811 18.8548 0.674194 21.2816 0.674194 24.1376V26.1437C0.674451 26.2967 0.735627 26.4432 0.844097 26.5509C0.952566 26.6589 1.09934 26.719 1.25228 26.7185H10.0541C10.0754 26.7208 10.0967 26.7221 10.1181 26.7218H24.6282C24.6495 26.7221 24.6711 26.7208 24.6922 26.7185H33.4947C33.8111 26.7172 34.0673 26.4604 34.0681 26.1437V24.1376C34.0681 21.2816 32.2773 18.8548 29.7668 17.9277C30.7155 17.2242 31.3355 16.0929 31.3355 14.8216C31.3355 12.7043 29.6231 10.9711 27.5187 10.9711C25.4143 10.9711 23.7019 12.7043 23.7019 14.8216C23.7019 16.0922 24.3216 17.2229 25.2696 17.9264C24.6432 18.157 24.063 18.4791 23.5433 18.8793C22.6051 17.6693 21.3271 16.7438 19.8481 16.2489C21.0723 15.4361 21.8836 14.0417 21.8836 12.4624C21.8836 9.96602 19.8589 7.92383 17.373 7.92383H17.3729ZM17.3729 9.07538C19.2321 9.07538 20.7309 10.5842 20.7309 12.4624C20.7309 14.326 19.2554 15.8202 17.4168 15.8441C17.4022 15.8441 17.3878 15.842 17.3729 15.842C17.358 15.842 17.3438 15.8441 17.3289 15.8441C15.4903 15.8205 14.0159 14.326 14.0159 12.4624C14.0159 10.584 15.5134 9.07538 17.3726 9.07538H17.3729ZM7.22808 12.1228C8.70325 12.1228 9.89335 13.3201 9.89335 14.8218C9.89335 16.3134 8.71864 17.5056 7.25736 17.5217C7.24759 17.5217 7.23808 17.5207 7.22806 17.5207C7.21829 17.5207 7.20878 17.5217 7.19876 17.5217C5.73748 17.5056 4.56277 16.3131 4.56277 14.8218C4.56277 13.3202 5.75287 12.1228 7.22804 12.1228H7.22808ZM27.5184 12.1228C28.9935 12.1228 30.1836 13.3201 30.1836 14.8218C30.1836 16.3134 29.0089 17.5056 27.5476 17.5217C27.5379 17.5217 27.5284 17.5207 27.5183 17.5207C27.5086 17.5207 27.4991 17.5217 27.489 17.5217C26.0277 17.5056 24.853 16.3131 24.853 14.8218C24.853 13.3202 26.0431 12.1228 27.5183 12.1228H27.5184ZM17.3288 16.9956C17.3435 16.9958 17.3578 16.9976 17.3728 16.9976C17.3874 16.9976 17.4018 16.9956 17.4167 16.9956C21.104 17.0192 24.0549 19.9955 24.0549 23.7213L24.0546 25.5699H10.6914V23.7213C10.6914 19.9952 13.6415 17.0193 17.3283 16.9956H17.3288ZM7.18399 18.6746C7.19864 18.6749 7.21304 18.6767 7.22795 18.6767C7.24286 18.6767 7.25699 18.6746 7.2719 18.6746C8.51906 18.6846 9.65725 19.1147 10.5636 19.8341C9.91503 20.9816 9.53999 22.3061 9.53999 23.7216V25.5659H1.82528V24.1375C1.82528 21.1095 4.20602 18.6982 7.18386 18.6743L7.18399 18.6746ZM27.4743 18.6746C27.4892 18.6749 27.5033 18.6767 27.5182 18.6767C27.5331 18.6767 27.5473 18.6746 27.5622 18.6746C30.54 18.6983 32.9208 21.1098 32.9208 24.1378V25.5659H25.2021L25.2018 23.7216C25.2018 22.3069 24.8278 20.9834 24.1806 19.8362C25.0871 19.1157 26.2261 18.6846 27.4743 18.6746H27.4743Z" fill="#103E13"/>
</svg>
