<svg width="46" height="40" viewBox="0 0 46 40" fill="none" xmlns="http://www.w3.org/2000/svg">
<path d="M45.7923 27.4136C45.7923 34.3333 40.1827 39.9429 33.263 39.9429L14.4692 39.9429C12.547 39.9429 10.9888 38.3847 10.9888 36.4625L10.9888 12.7962C10.9888 8.95187 14.1052 5.83547 17.9495 5.83547L42.3119 5.83547C44.2341 5.83547 45.7923 7.39367 45.7923 9.31581L45.7923 27.4136Z" fill="#E8F5E9"/>
<path d="M19.2834 14.1959C19.0662 14.1959 18.8897 14.0196 18.8897 13.8022V13.133C18.8897 12.9158 19.0659 12.7393 19.2834 12.7393C19.5006 12.7393 19.6772 12.9155 19.6772 13.133V13.8022C19.6772 14.0196 19.5006 14.1959 19.2834 14.1959Z" fill="#103E13"/>
<path d="M17.628 14.1959C17.4108 14.1959 17.2342 14.0196 17.2342 13.8022V13.133C17.2342 12.9158 17.4105 12.7393 17.628 12.7393C17.8452 12.7393 18.0217 12.9155 18.0217 13.133V13.8022C18.0215 14.0196 17.8455 14.1959 17.628 14.1959Z" fill="#103E13"/>
<path d="M15.9727 14.1959C15.7555 14.1959 15.579 14.0196 15.579 13.8022V13.133C15.579 12.9158 15.7552 12.7393 15.9727 12.7393C16.1899 12.7393 16.3665 12.9155 16.3665 13.133V13.8022C16.3665 14.0196 16.1902 14.1959 15.9727 14.1959Z" fill="#103E13"/>
<path d="M19.2834 16.932C19.0662 16.932 18.8897 16.7557 18.8897 16.5382V15.8693C18.8897 15.6521 19.0659 15.4756 19.2834 15.4756C19.5006 15.4756 19.6772 15.6519 19.6772 15.8693V16.5382C19.6772 16.7557 19.5006 16.932 19.2834 16.932Z" fill="#103E13"/>
<path d="M17.628 16.932C17.4108 16.932 17.2342 16.7557 17.2342 16.5382V15.8693C17.2342 15.6521 17.4105 15.4756 17.628 15.4756C17.8452 15.4756 18.0217 15.6519 18.0217 15.8693V16.5382C18.0215 16.7557 17.8455 16.932 17.628 16.932Z" fill="#103E13"/>
<path d="M15.9727 16.932C15.7555 16.932 15.579 16.7557 15.579 16.5382V15.8693C15.579 15.6521 15.7552 15.4756 15.9727 15.4756C16.1899 15.4756 16.3665 15.6519 16.3665 15.8693V16.5382C16.3665 16.7557 16.1902 16.932 15.9727 16.932Z" fill="#103E13"/>
<path d="M19.2834 19.6686C19.0662 19.6686 18.8897 19.4923 18.8897 19.2748V18.6057C18.8897 18.3885 19.0659 18.2119 19.2834 18.2119C19.5006 18.2119 19.6772 18.3882 19.6772 18.6057V19.2748C19.6772 19.4923 19.5006 19.6686 19.2834 19.6686Z" fill="#103E13"/>
<path d="M17.628 19.6686C17.4108 19.6686 17.2342 19.4923 17.2342 19.2748V18.6057C17.2342 18.3885 17.4105 18.2119 17.628 18.2119C17.8452 18.2119 18.0217 18.3882 18.0217 18.6057V19.2748C18.0215 19.4923 17.8455 19.6686 17.628 19.6686Z" fill="#103E13"/>
<path d="M15.9727 19.6686C15.7555 19.6686 15.579 19.4923 15.579 19.2748V18.6057C15.579 18.3885 15.7552 18.2119 15.9727 18.2119C16.1899 18.2119 16.3665 18.3882 16.3665 18.6057V19.2748C16.3665 19.4923 16.1902 19.6686 15.9727 19.6686Z" fill="#103E13"/>
<path d="M19.2834 22.4044C19.0662 22.4044 18.8897 22.2281 18.8897 22.0106V21.3415C18.8897 21.1243 19.0659 20.9478 19.2834 20.9478C19.5006 20.9478 19.6772 21.124 19.6772 21.3415V22.0106C19.6772 22.2281 19.5006 22.4044 19.2834 22.4044Z" fill="#103E13"/>
<path d="M17.628 22.4044C17.4108 22.4044 17.2342 22.2281 17.2342 22.0106V21.3415C17.2342 21.1243 17.4105 20.9478 17.628 20.9478C17.8452 20.9478 18.0217 21.124 18.0217 21.3415V22.0106C18.0215 22.2281 17.8455 22.4044 17.628 22.4044Z" fill="#103E13"/>
<path d="M15.9727 22.4044C15.7555 22.4044 15.579 22.2281 15.579 22.0106V21.3415C15.579 21.1243 15.7552 20.9478 15.9727 20.9478C16.1899 20.9478 16.3665 21.124 16.3665 21.3415V22.0106C16.3665 22.2281 16.1902 22.4044 15.9727 22.4044Z" fill="#103E13"/>
<path d="M19.2834 25.1409C19.0662 25.1409 18.8897 24.9647 18.8897 24.7472V24.0783C18.8897 23.8611 19.0659 23.6846 19.2834 23.6846C19.5006 23.6846 19.6772 23.8609 19.6772 24.0783V24.7472C19.6772 24.9644 19.5006 25.1409 19.2834 25.1409Z" fill="#103E13"/>
<path d="M17.628 25.1409C17.4108 25.1409 17.2342 24.9647 17.2342 24.7472V24.0783C17.2342 23.8611 17.4105 23.6846 17.628 23.6846C17.8452 23.6846 18.0217 23.8609 18.0217 24.0783V24.7472C18.0215 24.9644 17.8455 25.1409 17.628 25.1409Z" fill="#103E13"/>
<path d="M15.9727 25.1409C15.7555 25.1409 15.579 24.9647 15.579 24.7472L15.5792 24.0783C15.5792 23.8611 15.7555 23.6846 15.973 23.6846C16.1902 23.6846 16.3667 23.8609 16.3667 24.0783V24.7472C16.3665 24.9644 16.1902 25.1409 15.9727 25.1409Z" fill="#103E13"/>
<path d="M4.72451 27.864C4.72451 28.0812 4.90079 28.2578 5.11826 28.2578H29.0963C29.3135 28.2578 29.49 28.0815 29.49 27.864C29.49 27.6468 29.3138 27.4703 29.0963 27.4703H28.3684V16.1652C28.3684 15.948 28.1921 15.7714 27.9747 15.7714L21.546 15.7717V7.62135C21.546 7.48351 21.474 7.35611 21.3565 7.28471C21.2393 7.21305 21.0926 7.20866 20.9707 7.27208L13.6618 11.0775C13.5313 11.1453 13.4501 11.2798 13.4501 11.4268V18.5459H6.37657C6.15938 18.5459 5.98282 18.7222 5.98282 18.9397V27.4703H5.11738C4.90019 27.47 4.72418 27.6463 4.72418 27.8638L4.72451 27.864ZM21.5461 21.7352H27.5813V27.4706L21.5461 27.4703V21.7352ZM21.5461 18.999H27.5813V20.948L21.5461 20.9477V18.999ZM21.5461 16.5588H27.5813V18.2121H21.5461V16.5588ZM14.2371 11.6658L20.7583 8.27038V27.4699H14.2371V11.6658ZM8.71675 24.3254C8.71675 23.5083 9.3642 22.8433 10.1602 22.8433C10.9562 22.8433 11.6039 23.508 11.6039 24.3254V27.4704H8.71675V24.3254ZM6.77029 19.3333H13.4499V27.4703H12.3914V24.3253C12.3914 23.074 11.3909 22.0559 10.1602 22.0559C8.93009 22.0559 7.92955 23.0737 7.92955 24.3253V27.4703H6.77029V19.3333Z" fill="#103E13"/>
</svg>
